<svg width="104" height="49" viewBox="0 0 104 49" fill="none" xmlns="http://www.w3.org/2000/svg">
    <g filter="url(#filter0_d_128_618)">
        <path d="M3.0874 12.5374C3.0874 6.99388 7.58128 2.5 13.1248 2.5H43.1559V36.0101C43.1559 41.5536 38.662 46.0475 33.1185 46.0475H3.0874V12.5374Z" fill="#3B094E"/>
        <path d="M22.6975 33.9266C23.6766 33.9266 24.3937 33.6508 24.8487 33.0992C25.3038 32.5476 25.5313 31.8925 25.5313 31.1341V29.6861C25.5313 28.7898 25.2417 28.1554 24.6626 27.7831C24.0834 27.397 23.4284 27.2039 22.6975 27.2039H21.084V33.9266H22.6975ZM25.2417 19.9435C25.2417 19.1161 25.0142 18.5438 24.5591 18.2266C24.1041 17.8957 23.449 17.7302 22.5941 17.7302H21.084V23.7082H22.7595C23.5594 23.7082 24.173 23.3979 24.6005 22.7773C25.028 22.143 25.2417 21.3707 25.2417 20.4606V19.9435ZM24.1041 38.167C23.0284 38.167 21.6356 38.1394 19.9257 38.0843C18.2157 38.0291 16.9884 37.9946 16.2437 37.9808H14.258V13.738H17.8365C18.7053 13.738 19.6981 13.7104 20.8151 13.6552C21.9321 13.5863 22.7389 13.5518 23.2353 13.5518C24.8487 13.5518 26.207 13.6828 27.3102 13.9448C28.4272 14.2068 29.3029 14.5998 29.9372 15.1239C30.5716 15.6479 31.0198 16.2546 31.2818 16.9441C31.5576 17.6336 31.6955 18.4541 31.6955 19.4057C31.6955 20.8674 31.3576 22.1223 30.6819 23.1703C30.0062 24.2184 29.0271 24.8734 27.7446 25.1354C30.9991 25.425 32.6263 27.3349 32.6263 30.8652C32.6263 31.927 32.4677 32.8923 32.1505 33.7611C31.8334 34.6161 31.3438 35.3814 30.6819 36.0571C30.0338 36.719 29.1512 37.2362 28.0342 37.6085C26.9172 37.9808 25.6072 38.167 24.1041 38.167Z" fill="#FFFEFE"/>
    </g>
    <path d="M55.6374 34.076L55.4774 34.252C55.3708 34.38 55.2054 34.5293 54.9814 34.7C54.7681 34.8707 54.5174 35.0413 54.2294 35.212C53.9521 35.3827 53.6108 35.5267 53.2054 35.644C52.8001 35.772 52.3841 35.836 51.9574 35.836C49.0774 35.836 47.6374 34.412 47.6374 31.564C47.6374 31.0093 47.7388 30.5027 47.9414 30.044C48.1441 29.5747 48.4054 29.18 48.7254 28.86C49.0454 28.54 49.4294 28.2573 49.8774 28.012C50.3254 27.756 50.7734 27.5587 51.2214 27.42C51.6801 27.2707 52.1601 27.148 52.6614 27.052C53.1628 26.956 53.6108 26.892 54.0054 26.86C54.4001 26.828 54.7788 26.812 55.1414 26.812V26.524C55.1414 25.8733 54.9654 25.4147 54.6134 25.148C54.2721 24.8813 53.7174 24.748 52.9494 24.748C52.2881 24.748 51.6001 24.828 50.8854 24.988C50.1708 25.1373 49.6108 25.3187 49.2054 25.532L48.1814 23.356C48.9068 22.8867 49.8508 22.476 51.0134 22.124C52.1761 21.7613 53.3601 21.58 54.5654 21.58C55.6321 21.58 56.5121 21.6867 57.2054 21.9C57.8988 22.1027 58.4588 22.4547 58.8854 22.956C59.3228 23.4467 59.6321 24.076 59.8134 24.844C59.9948 25.6013 60.0854 26.5667 60.0854 27.74V34.252L60.5334 35.5H56.1494L55.6374 34.076ZM54.3734 33.02C54.5121 33.02 54.6401 32.9933 54.7574 32.94C54.8854 32.876 54.9814 32.8173 55.0454 32.764C55.1094 32.7 55.1414 32.668 55.1414 32.668V28.828C54.4908 28.828 53.9734 29.0093 53.5894 29.372C53.2054 29.724 53.0134 30.2733 53.0134 31.02C53.0134 32.3533 53.4668 33.02 54.3734 33.02ZM65.8757 35.836C64.4357 35.836 63.4277 35.404 62.8517 34.54C62.2863 33.676 62.0037 32.2147 62.0037 30.156V24.716H60.8997V22.492L62.7877 21.9L64.4197 18.172H67.2357V21.9H69.8597V24.716H67.1877V30.668C67.1877 31.5213 67.3103 32.0867 67.5557 32.364C67.801 32.6413 68.1797 32.78 68.6917 32.78C68.9157 32.78 69.1183 32.7533 69.2997 32.7C69.481 32.6467 69.6303 32.572 69.7477 32.476V34.652C69.5877 34.812 69.3797 34.972 69.1237 35.132C68.8677 35.2813 68.441 35.436 67.8437 35.596C67.257 35.756 66.601 35.836 65.8757 35.836ZM71.0963 35.5V17.404L70.1363 16.828V15.34L75.2723 14.54H76.3123V35.5H71.0963ZM85.3562 34.076L85.1962 34.252C85.0895 34.38 84.9242 34.5293 84.7002 34.7C84.4868 34.8707 84.2362 35.0413 83.9482 35.212C83.6708 35.3827 83.3295 35.5267 82.9242 35.644C82.5188 35.772 82.1028 35.836 81.6762 35.836C78.7962 35.836 77.3562 34.412 77.3562 31.564C77.3562 31.0093 77.4575 30.5027 77.6602 30.044C77.8628 29.5747 78.1242 29.18 78.4442 28.86C78.7642 28.54 79.1482 28.2573 79.5962 28.012C80.0442 27.756 80.4922 27.5587 80.9402 27.42C81.3988 27.2707 81.8788 27.148 82.3802 27.052C82.8815 26.956 83.3295 26.892 83.7242 26.86C84.1188 26.828 84.4975 26.812 84.8602 26.812V26.524C84.8602 25.8733 84.6842 25.4147 84.3322 25.148C83.9908 24.8813 83.4362 24.748 82.6682 24.748C82.0068 24.748 81.3188 24.828 80.6042 24.988C79.8895 25.1373 79.3295 25.3187 78.9242 25.532L77.9002 23.356C78.6255 22.8867 79.5695 22.476 80.7322 22.124C81.8948 21.7613 83.0788 21.58 84.2842 21.58C85.3508 21.58 86.2308 21.6867 86.9242 21.9C87.6175 22.1027 88.1775 22.4547 88.6042 22.956C89.0415 23.4467 89.3508 24.076 89.5322 24.844C89.7135 25.6013 89.8042 26.5667 89.8042 27.74V34.252L90.2522 35.5H85.8682L85.3562 34.076ZM84.0922 33.02C84.2308 33.02 84.3588 32.9933 84.4762 32.94C84.6042 32.876 84.7002 32.8173 84.7642 32.764C84.8282 32.7 84.8602 32.668 84.8602 32.668V28.828C84.2095 28.828 83.6922 29.0093 83.3082 29.372C82.9242 29.724 82.7322 30.2733 82.7322 31.02C82.7322 32.3533 83.1855 33.02 84.0922 33.02ZM91.4984 35.5C91.4664 35.1373 91.3811 34.668 91.2424 34.092C91.1038 33.5053 90.9704 33.036 90.8424 32.684L96.5384 25.388L98.3304 24.06C97.8504 24.06 97.4131 24.0867 97.0184 24.14C96.6344 24.1827 96.3091 24.236 96.0424 24.3C95.7758 24.364 95.5304 24.4653 95.3064 24.604C95.0824 24.732 94.9118 24.844 94.7944 24.94C94.6771 25.0253 94.5598 25.1587 94.4424 25.34C94.3251 25.5213 94.2451 25.66 94.2024 25.756C94.1704 25.8413 94.1171 25.9853 94.0424 26.188C93.9678 26.3907 93.9198 26.524 93.8984 26.588H91.6904V21.9H102.394C102.448 22.2627 102.538 22.6787 102.666 23.148C102.805 23.6173 102.96 24.06 103.13 24.476L98.3784 31.516L96.4104 32.972C97.4344 32.972 98.2398 32.9293 98.8264 32.844C99.7118 32.716 100.288 32.4333 100.554 31.996C100.661 31.8253 100.81 31.3827 101.002 30.668H102.874V35.5H91.4984Z" fill="white"/>
    <defs>
        <filter id="filter0_d_128_618" x="0.871865" y="0.966167" width="44.4996" height="47.9784" filterUnits="userSpaceOnUse" color-interpolation-filters="sRGB">
            <feFlood flood-opacity="0" result="BackgroundImageFix"/>
            <feColorMatrix in="SourceAlpha" type="matrix" values="0 0 0 0 0 0 0 0 0 0 0 0 0 0 0 0 0 0 127 0" result="hardAlpha"/>
            <feOffset dy="0.681704"/>
            <feGaussianBlur stdDeviation="1.10777"/>
            <feComposite in2="hardAlpha" operator="out"/>
            <feColorMatrix type="matrix" values="0 0 0 0 0.4 0 0 0 0 0.121569 0 0 0 0 0.721569 0 0 0 1 0"/>
            <feBlend mode="normal" in2="BackgroundImageFix" result="effect1_dropShadow_128_618"/>
            <feBlend mode="normal" in="SourceGraphic" in2="effect1_dropShadow_128_618" result="shape"/>
        </filter>
    </defs>
</svg>
