<svg width="25" height="25" viewBox="0 0 25 25" fill="none" xmlns="http://www.w3.org/2000/svg">
    <path fill-rule="evenodd" clip-rule="evenodd" d="M15.2147 14.5035L14.9342 14.233C15.9159 13.091 16.5069 11.6085 16.5069 9.99575C16.5069 6.3996 13.5919 3.48462 9.99573 3.48462C6.39959 3.48462 3.4846 6.3996 3.4846 9.99575C3.4846 13.5919 6.39959 16.5069 9.99573 16.5069C11.6085 16.5069 13.091 15.9159 14.233 14.9342L14.5034 15.2147V16.006L18.8037 20.2977C19.195 20.6882 19.8287 20.6879 20.2196 20.297L20.2969 20.2196C20.6879 19.8287 20.6882 19.195 20.2976 18.8037L16.006 14.5035H15.2147ZM5.48801 9.99569C5.48801 7.50143 7.50145 5.48798 9.99571 5.48798C12.49 5.48798 14.5034 7.50143 14.5034 9.99569C14.5034 12.49 12.49 14.5034 9.99571 14.5034C7.50145 14.5034 5.48801 12.49 5.48801 9.99569Z" fill="#C2D1D9"/>
    <mask id="mask0_128_636" style="mask-type:luminance" maskUnits="userSpaceOnUse" x="3" y="3" width="18" height="18">
        <path fill-rule="evenodd" clip-rule="evenodd" d="M15.2147 14.5035L14.9342 14.233C15.9159 13.091 16.5069 11.6085 16.5069 9.99575C16.5069 6.3996 13.5919 3.48462 9.99573 3.48462C6.39959 3.48462 3.4846 6.3996 3.4846 9.99575C3.4846 13.5919 6.39959 16.5069 9.99573 16.5069C11.6085 16.5069 13.091 15.9159 14.233 14.9342L14.5034 15.2147V16.006L18.8037 20.2977C19.195 20.6882 19.8287 20.6879 20.2196 20.297L20.2969 20.2196C20.6879 19.8287 20.6882 19.195 20.2976 18.8037L16.006 14.5035H15.2147ZM5.48801 9.99569C5.48801 7.50143 7.50145 5.48798 9.99571 5.48798C12.49 5.48798 14.5034 7.50143 14.5034 9.99569C14.5034 12.49 12.49 14.5034 9.99571 14.5034C7.50145 14.5034 5.48801 12.49 5.48801 9.99569Z" fill="white"/>
    </mask>
    <g mask="url(#mask0_128_636)">
        <rect x="0.479446" y="0.479492" width="24.0411" height="24.0411" fill="white"/>
    </g>
</svg>
